<?xml version="1.0" encoding="UTF-8"?><svg xmlns="http://www.w3.org/2000/svg" xmlns:xlink="http://www.w3.org/1999/xlink" contentScriptType="text/ecmascript" width="1440" zoomAndPan="magnify" contentStyleType="text/css" viewBox="0 0 1440 809.999993" height="809.999993" preserveAspectRatio="xMidYMid meet" version="1.0"><defs><filter x="0%" y="0%" width="100%" xmlns:xlink="http://www.w3.org/1999/xlink" xlink:type="simple" xlink:actuate="onLoad" height="100%" id="filter-remove-color" xlink:show="other"><feColorMatrix values="0 0 0 0 1 0 0 0 0 1 0 0 0 0 1 0 0 0 1 0" color-interpolation-filters="sRGB"/></filter><mask id="mask-0"><g filter="url(#filter-remove-color)"><rect x="-144" width="1728" fill="rgb(0%, 0%, 0%)" y="-80.999999" height="971.999992" fill-opacity="0.2"/></g></mask><clipPath id="clip-0"><path d="M 49 0 L 1206 0 L 1206 810 L 49 810 Z M 49 0 " clip-rule="nonzero"/></clipPath><clipPath id="clip-1"><path d="M 93.140625 981.441406 L -1.488281 -127.53125 L 1147.832031 -225.605469 L 1242.464844 883.367188 Z M 93.140625 981.441406 " clip-rule="nonzero"/></clipPath><clipPath id="clip-2"><path d="M 93.140625 981.441406 L -1.488281 -127.53125 L 1147.832031 -225.605469 L 1242.464844 883.367188 Z M 93.140625 981.441406 " clip-rule="nonzero"/></clipPath><clipPath id="clip-3"><rect x="0" width="1236" y="0" height="810"/></clipPath><mask id="mask-1"><g filter="url(#filter-remove-color)"><rect x="-144" width="1728" fill="rgb(0%, 0%, 0%)" y="-80.999999" height="971.999992" fill-opacity="0.2"/></g></mask><clipPath id="clip-4"><path d="M 0 1 L 274 1 L 274 379 L 0 379 Z M 0 1 " clip-rule="nonzero"/></clipPath><clipPath id="clip-5"><rect x="0" width="275" y="0" height="379"/></clipPath><mask id="mask-2"><g filter="url(#filter-remove-color)"><rect x="-144" width="1728" fill="rgb(0%, 0%, 0%)" y="-80.999999" height="971.999992" fill-opacity="0.2"/></g></mask><clipPath id="clip-6"><path d="M 125 0 L 523 0 L 523 365 L 125 365 Z M 125 0 " clip-rule="nonzero"/></clipPath><clipPath id="clip-7"><path d="M -1.34375 74.851562 L 337.539062 -264.03125 L 688.617188 87.046875 L 349.734375 425.929688 Z M -1.34375 74.851562 " clip-rule="nonzero"/></clipPath><clipPath id="clip-8"><path d="M -1.34375 74.851562 L 337.539062 -264.03125 L 688.617188 87.046875 L 349.734375 425.929688 Z M -1.34375 74.851562 " clip-rule="nonzero"/></clipPath><clipPath id="clip-9"><rect x="0" width="523" y="0" height="423"/></clipPath><clipPath id="clip-10"><path d="M 1322 153 L 1440 153 L 1440 302 L 1322 302 Z M 1322 153 " clip-rule="nonzero"/></clipPath><clipPath id="clip-11"><path d="M 1482.039062 186.691406 L 1438.773438 324.039062 L 1296.417969 279.199219 L 1339.683594 141.851562 Z M 1482.039062 186.691406 " clip-rule="nonzero"/></clipPath><clipPath id="clip-12"><path d="M 1482.039062 186.691406 L 1438.773438 324.039062 L 1296.417969 279.199219 L 1339.683594 141.851562 Z M 1482.039062 186.691406 " clip-rule="nonzero"/></clipPath></defs><rect x="-144" width="1728" fill="rgb(100%, 100%, 100%)" y="-80.999999" height="971.999992" fill-opacity="1"/><rect x="-144" width="1728" fill="rgb(1.568604%, 20.388794%, 36.079407%)" y="-80.999999" height="971.999992" fill-opacity="1"/><g mask="url(#mask-0)"><g transform="matrix(1, 0, 0, 1, 82, 0.000000000000039746)"><g id="source-5" clip-path="url(#clip-3)"><g clip-path="url(#clip-0)"><g clip-path="url(#clip-1)"><g clip-path="url(#clip-2)"><path fill="rgb(41.958618%, 83.139038%, 80.389404%)" d="M 546.984375 -160.917969 C 434.261719 -129.328125 339.113281 -57.148438 256 23.257812 C 182.722656 94.265625 118.734375 176.511719 81.8125 272.402344 C 63.800781 318.804688 48.113281 370.792969 49.609375 420.851562 C 51.085938 470.679688 65.230469 519.890625 89.089844 563.644531 C 113.003906 608.089844 147.816406 647.441406 189.539062 675.566406 C 236.683594 707.621094 291.429688 723.070312 345.566406 739.496094 C 468.550781 776.644531 581.285156 840.105469 704.347656 878.171875 C 813.160156 911.90625 934.804688 922.570312 1039.925781 869.660156 C 1140.148438 819.015625 1191.546875 716.570312 1202.621094 607.851562 C 1214.914062 483.535156 1179.316406 359.140625 1122.527344 249.277344 C 1094.226562 194.105469 1060.402344 141.949219 1024.398438 91.363281 C 988.679688 41.453125 952.257812 -8.632812 911.785156 -54.671875 C 875.148438 -96.414062 833.007812 -132.132812 780.855469 -152.429688 C 731.324219 -171.792969 677.089844 -178.496094 624.007812 -174.429688 C 597.582031 -172.40625 571.871094 -167.4375 546.984375 -160.917969 " fill-opacity="1" fill-rule="nonzero"/></g></g></g></g></g></g><g mask="url(#mask-1)"><g transform="matrix(1, 0, 0, 1, 0, 431)"><g id="source-8" clip-path="url(#clip-5)"><g clip-path="url(#clip-4)"><path fill="rgb(41.958618%, 83.139038%, 80.389404%)" d="M 271.164062 206.765625 C 262.917969 163.394531 238.875 125.328125 211.359375 91.519531 C 187.054688 61.710938 158.238281 35.027344 123.429688 18.082031 C 106.589844 9.824219 87.582031 2.261719 68.746094 1.21875 C 49.996094 0.175781 31.074219 3.914062 13.886719 11.476562 C -3.558594 19.035156 -19.445312 30.855469 -31.335938 45.632812 C -44.878906 62.320312 -52.429688 82.394531 -60.328125 102.210938 C -78.210938 147.230469 -105.636719 187.558594 -123.867188 232.578125 C -140.011719 272.382812 -147.910156 317.75 -131.417969 358.945312 C -115.621094 398.230469 -78.816406 420.828125 -38.367188 428.476562 C 7.898438 437.078125 55.726562 427.695312 98.777344 409.875 C 120.390625 401.011719 141.050781 389.972656 161.1875 378.066406 C 181.066406 366.246094 201.03125 354.167969 219.605469 340.433594 C 236.445312 328.007812 251.203125 313.316406 260.488281 294.371094 C 269.34375 276.382812 273.597656 256.21875 273.769531 236.140625 C 273.855469 226.144531 272.816406 216.324219 271.164062 206.765625 " fill-opacity="1" fill-rule="nonzero"/></g></g></g></g><path fill="rgb(41.958618%, 83.139038%, 80.389404%)" d="M 230.414062 772.148438 C 226.84375 753.382812 216.433594 736.90625 204.523438 722.277344 C 194 709.375 181.523438 697.828125 166.457031 690.496094 C 159.167969 686.921875 150.9375 683.648438 142.78125 683.199219 C 134.664062 682.746094 126.472656 684.363281 119.035156 687.636719 C 111.480469 690.910156 104.605469 696.023438 99.457031 702.417969 C 93.59375 709.640625 90.324219 718.328125 86.90625 726.902344 C 79.164062 746.386719 67.289062 763.835938 59.398438 783.320312 C 52.410156 800.546875 48.988281 820.179688 56.128906 838.007812 C 62.96875 855.007812 78.902344 864.785156 96.410156 868.097656 C 116.441406 871.820312 137.144531 867.757812 155.785156 860.046875 C 165.140625 856.210938 174.085938 851.433594 182.804688 846.28125 C 191.40625 841.167969 200.050781 835.9375 208.09375 829.996094 C 215.382812 824.617188 221.769531 818.261719 225.792969 810.0625 C 229.625 802.277344 231.464844 793.550781 231.542969 784.863281 C 231.578125 780.535156 231.128906 776.285156 230.414062 772.148438 " fill-opacity="1" fill-rule="nonzero"/><g mask="url(#mask-2)"><g transform="matrix(1, 0, 0, 1, 917, 0.000000000000039746)"><g id="source-11" clip-path="url(#clip-9)"><g clip-path="url(#clip-6)"><g clip-path="url(#clip-7)"><g clip-path="url(#clip-8)"><path fill="rgb(41.958618%, 83.139038%, 80.389404%)" d="M 500.660156 -92.769531 C 458.992188 -121.105469 408.835938 -132.394531 359.308594 -137.4375 C 315.605469 -141.851562 270.777344 -140.09375 228.960938 -125.636719 C 208.6875 -118.6875 187.21875 -109.425781 171.152344 -95.042969 C 155.15625 -80.730469 142.878906 -62.417969 135.085938 -42.425781 C 127.085938 -22.21875 123.789062 0.160156 126.101562 21.695312 C 128.621094 46.109375 138.722656 68.417969 148.328125 90.796875 C 170.210938 141.582031 180.585938 196.300781 202.1875 247.371094 C 221.265625 292.546875 251.496094 335.546875 298.074219 355.464844 C 342.546875 374.398438 390.535156 362.886719 429.402344 336.367188 C 473.742188 305.914062 504.828125 259.679688 525.246094 210.5 C 535.5625 185.875 543.351562 160.269531 550.019531 134.378906 C 556.546875 108.773438 562.933594 82.886719 566.867188 56.789062 C 570.449219 33.148438 570.519531 9.367188 562.738281 -13.433594 C 555.375 -35.109375 542.539062 -54.820312 526.476562 -71.164062 C 518.476562 -79.300781 509.710938 -86.386719 500.660156 -92.769531 " fill-opacity="1" fill-rule="nonzero"/></g></g></g></g></g></g><g clip-path="url(#clip-10)"><g clip-path="url(#clip-11)"><g clip-path="url(#clip-12)"><path fill="rgb(41.958618%, 83.139038%, 80.389404%)" d="M 1371.5 301.039062 C 1386.546875 302.804688 1401.484375 298.855469 1415.386719 293.324219 C 1427.652344 288.433594 1439.359375 281.746094 1448.496094 272.089844 C 1452.9375 267.421875 1457.371094 261.976562 1459.65625 255.914062 C 1461.933594 249.878906 1462.664062 243.292969 1461.960938 236.882812 C 1461.289062 230.386719 1459.058594 223.964844 1455.449219 218.546875 C 1451.386719 212.390625 1445.59375 207.847656 1439.925781 203.21875 C 1427.035156 192.71875 1416.667969 179.574219 1403.816406 168.960938 C 1392.457031 159.570312 1378.425781 152.304688 1363.242188 153.460938 C 1348.753906 154.585938 1337.5625 164.316406 1330.882812 176.777344 C 1323.292969 191.046875 1321.429688 207.683594 1322.820312 223.625 C 1323.488281 231.621094 1324.96875 239.523438 1326.789062 247.351562 C 1328.605469 255.082031 1330.5 262.867188 1333.078125 270.367188 C 1335.40625 277.164062 1338.691406 283.511719 1343.933594 288.507812 C 1348.90625 293.265625 1355.066406 296.734375 1361.617188 298.863281 C 1364.878906 299.921875 1368.203125 300.59375 1371.5 301.039062 " fill-opacity="1" fill-rule="nonzero"/></g></g></g><path fill="rgb(41.958618%, 83.139038%, 80.389404%)" d="M 1336.5 81 C 1324.074219 81 1314 91.074219 1314 103.5 C 1314 115.925781 1324.074219 126 1336.5 126 C 1348.925781 126 1359 115.925781 1359 103.5 C 1359 91.074219 1348.925781 81 1336.5 81 Z M 1336.5 81 " fill-opacity="1" fill-rule="nonzero"/><path fill="rgb(41.958618%, 83.139038%, 80.389404%)" d="M 34.5 636 C 8.820312 636 -12 656.820312 -12 682.5 C -12 708.179688 8.820312 729 34.5 729 C 60.179688 729 81 708.179688 81 682.5 C 81 656.820312 60.179688 636 34.5 636 Z M 34.5 636 " fill-opacity="1" fill-rule="nonzero"/></svg>